<svg xmlns="http://www.w3.org/2000/svg" xmlns:xlink="http://www.w3.org/1999/xlink" style="isolation:isolate" width="993.22" height="554.111" viewBox="0 0 744.915 415.583"><g><rect width="83.333" height="83.333" x="80.97" y="165" fill="#000" transform="matrix(1,0,0,1,0,0)"/><clipPath id="_clipPath_H2W3gWa9m7hQOTKw4tEH8RQNxcZ721uu"><rect width="83.333" height="83.333" x="80.97" y="165" fill="#FFF" transform="matrix(1,0,0,1,0,0)"/></clipPath><g clip-path="url(#_clipPath_H2W3gWa9m7hQOTKw4tEH8RQNxcZ721uu)"><mask id="_mask_Zt1Paqn8oAatEynr0D8RH1WC9wgKgeFO"><rect width="83.333" height="83.333" x="80.97" y="165" fill="#fff" stroke="none"/></mask><rect width="83.333" height="83.333" x="80.97" y="165" fill="#000" transform="matrix(1,0,0,1,0,0)"/><rect width="83.333" height="83.333" x="80.97" y="165" fill="#000" stroke="#000" stroke-linecap="square" stroke-linejoin="miter" stroke-miterlimit="2" stroke-opacity="100" stroke-width="2" mask="url(#_mask_Zt1Paqn8oAatEynr0D8RH1WC9wgKgeFO)" transform="matrix(1,0,0,1,0,0)" vector-effect="non-scaling-stroke"/></g><rect width="83.333" height="83.333" x="81" y="248.25" fill="#FFF" transform="matrix(1,0,0,1,0,0)"/><clipPath id="_clipPath_GFFHqlwg3sZZ3usDCxrxGJApWpcWDiR0"><rect width="83.333" height="83.333" x="81" y="248.25" fill="#FFF" transform="matrix(1,0,0,1,0,0)"/></clipPath><g clip-path="url(#_clipPath_GFFHqlwg3sZZ3usDCxrxGJApWpcWDiR0)"><mask id="_mask_2l4tsDMV4qQHdE4Ij3BmQOoZYD3ywhwn"><rect width="83.333" height="83.333" x="81" y="248.25" fill="#fff" stroke="none"/></mask><rect width="83.333" height="83.333" x="81" y="248.25" fill="#FFF" transform="matrix(1,0,0,1,0,0)"/><rect width="83.333" height="83.333" x="81" y="248.25" fill="#FFF" stroke="#000" stroke-linecap="square" stroke-linejoin="miter" stroke-miterlimit="2" stroke-opacity="100" stroke-width="2" mask="url(#_mask_2l4tsDMV4qQHdE4Ij3BmQOoZYD3ywhwn)" transform="matrix(1,0,0,1,0,0)" vector-effect="non-scaling-stroke"/></g><rect width="83.333" height="83.333" x="164.303" y="83" fill="#000" transform="matrix(1,0,0,1,0,0)"/><clipPath id="_clipPath_505hhA5VzKudhTfaRAkv55u6bKlB4D8h"><rect width="83.333" height="83.333" x="164.303" y="83" fill="#FFF" transform="matrix(1,0,0,1,0,0)"/></clipPath><g clip-path="url(#_clipPath_505hhA5VzKudhTfaRAkv55u6bKlB4D8h)"><mask id="_mask_kpq0hPXcxTPjqEiyI8FeIbSvtpDT6ks2"><rect width="83.333" height="83.333" x="164.303" y="83" fill="#fff" stroke="none"/></mask><rect width="83.333" height="83.333" x="164.303" y="83" fill="#000" transform="matrix(1,0,0,1,0,0)"/><rect width="83.333" height="83.333" x="164.303" y="83" fill="#000" stroke="#000" stroke-linecap="square" stroke-linejoin="miter" stroke-miterlimit="2" stroke-opacity="100" stroke-width="2" mask="url(#_mask_kpq0hPXcxTPjqEiyI8FeIbSvtpDT6ks2)" transform="matrix(1,0,0,1,0,0)" vector-effect="non-scaling-stroke"/></g><rect width="83.333" height="83.333" x="164.333" y="166.25" fill="#FFF" transform="matrix(1,0,0,1,0,0)"/><clipPath id="_clipPath_5MMvEvRWr0cGspGLkRE6nL7ELKAxihHi"><rect width="83.333" height="83.333" x="164.333" y="166.25" fill="#FFF" transform="matrix(1,0,0,1,0,0)"/></clipPath><g clip-path="url(#_clipPath_5MMvEvRWr0cGspGLkRE6nL7ELKAxihHi)"><mask id="_mask_CI9wVhZgAhuGP7PGOyES13JSAKycP11d"><rect width="83.333" height="83.333" x="164.333" y="166.25" fill="#fff" stroke="none"/></mask><rect width="83.333" height="83.333" x="164.333" y="166.25" fill="#FFF" transform="matrix(1,0,0,1,0,0)"/><rect width="83.333" height="83.333" x="164.333" y="166.25" fill="#FFF" stroke="#000" stroke-linecap="square" stroke-linejoin="miter" stroke-miterlimit="2" stroke-opacity="100" stroke-width="2" mask="url(#_mask_CI9wVhZgAhuGP7PGOyES13JSAKycP11d)" transform="matrix(1,0,0,1,0,0)" vector-effect="non-scaling-stroke"/></g><rect width="83.333" height="83.333" x="164.303" y="249" fill="#000" transform="matrix(1,0,0,1,0,0)"/><clipPath id="_clipPath_Yykzb5rtyME2oB7imgqakyTfRhNNd6xH"><rect width="83.333" height="83.333" x="164.303" y="249" fill="#FFF" transform="matrix(1,0,0,1,0,0)"/></clipPath><g clip-path="url(#_clipPath_Yykzb5rtyME2oB7imgqakyTfRhNNd6xH)"><mask id="_mask_ZdoNcVhvkc1ryvX1o0rEie7qR4Dqak8t"><rect width="83.333" height="83.333" x="164.303" y="249" fill="#fff" stroke="none"/></mask><rect width="83.333" height="83.333" x="164.303" y="249" fill="#000" transform="matrix(1,0,0,1,0,0)"/><rect width="83.333" height="83.333" x="164.303" y="249" fill="#000" stroke="#000" stroke-linecap="square" stroke-linejoin="miter" stroke-miterlimit="2" stroke-opacity="100" stroke-width="2" mask="url(#_mask_ZdoNcVhvkc1ryvX1o0rEie7qR4Dqak8t)" transform="matrix(1,0,0,1,0,0)" vector-effect="non-scaling-stroke"/></g><rect width="83.333" height="83.333" x="81.209" y="82.251" fill="#FFF" transform="matrix(1,0,0,1,0,0)"/><clipPath id="_clipPath_bOXxJOLGINpfdnTYOmYkOJZCKKV9iWeC"><rect width="83.333" height="83.333" x="81.209" y="82.251" fill="#FFF" transform="matrix(1,0,0,1,0,0)"/></clipPath><g clip-path="url(#_clipPath_bOXxJOLGINpfdnTYOmYkOJZCKKV9iWeC)"><mask id="_mask_8TjORifgenAWnoGPbhD2fwIpGnjPIXNa"><rect width="83.333" height="83.333" x="81.209" y="82.251" fill="#fff" stroke="none"/></mask><rect width="83.333" height="83.333" x="81.209" y="82.251" fill="#FFF" transform="matrix(1,0,0,1,0,0)"/><rect width="83.333" height="83.333" x="81.209" y="82.251" fill="#FFF" stroke="#000" stroke-linecap="square" stroke-linejoin="miter" stroke-miterlimit="2" stroke-opacity="100" stroke-width="2" mask="url(#_mask_8TjORifgenAWnoGPbhD2fwIpGnjPIXNa)" transform="matrix(1,0,0,1,0,0)" vector-effect="non-scaling-stroke"/></g><rect width="83.333" height="83.333" x=".959" y="167.501" fill="#FFF" transform="matrix(1,0,0,1,0,0)"/><clipPath id="_clipPath_mNEol6S4w4ek4aZio4XTo0MI9z8pl4xb"><rect width="83.333" height="83.333" x=".959" y="167.501" fill="#FFF" transform="matrix(1,0,0,1,0,0)"/></clipPath><g clip-path="url(#_clipPath_mNEol6S4w4ek4aZio4XTo0MI9z8pl4xb)"><mask id="_mask_r90ydNNoE5HpZ6wKhU0s6WVUThbg6Hcn"><rect width="83.333" height="83.333" x=".959" y="167.501" fill="#fff" stroke="none"/></mask><rect width="83.333" height="83.333" x=".959" y="167.501" fill="#FFF" transform="matrix(1,0,0,1,0,0)"/><rect width="83.333" height="83.333" x=".959" y="167.501" fill="#FFF" stroke="#000" stroke-linecap="square" stroke-linejoin="miter" stroke-miterlimit="2" stroke-opacity="100" stroke-width="2" mask="url(#_mask_r90ydNNoE5HpZ6wKhU0s6WVUThbg6Hcn)" transform="matrix(1,0,0,1,0,0)" vector-effect="non-scaling-stroke"/></g><rect width="83.333" height="83.333" x="246.833" y="84.251" fill="#FFF" transform="matrix(1,0,0,1,0,0)"/><clipPath id="_clipPath_SVvmxjEC5hWvappA9Uz7VwL95glU3DQL"><rect width="83.333" height="83.333" x="246.833" y="84.251" fill="#FFF" transform="matrix(1,0,0,1,0,0)"/></clipPath><g clip-path="url(#_clipPath_SVvmxjEC5hWvappA9Uz7VwL95glU3DQL)"><mask id="_mask_gEltovEgiDKXJcCnrJoya4lDunNqS3gJ"><rect width="83.333" height="83.333" x="246.833" y="84.251" fill="#fff" stroke="none"/></mask><rect width="83.333" height="83.333" x="246.833" y="84.251" fill="#FFF" transform="matrix(1,0,0,1,0,0)"/><rect width="83.333" height="83.333" x="246.833" y="84.251" fill="#FFF" stroke="#000" stroke-linecap="square" stroke-linejoin="miter" stroke-miterlimit="2" stroke-opacity="100" stroke-width="2" mask="url(#_mask_gEltovEgiDKXJcCnrJoya4lDunNqS3gJ)" transform="matrix(1,0,0,1,0,0)" vector-effect="non-scaling-stroke"/></g><rect width="83.333" height="83.333" x="329.927" y="83.375" fill="#000" transform="matrix(1,0,0,1,0,0)"/><clipPath id="_clipPath_uLOV0L5JKwnyZYdvJ1kkFpnrToJAlxwm"><rect width="83.333" height="83.333" x="329.927" y="83.375" fill="#FFF" transform="matrix(1,0,0,1,0,0)"/></clipPath><g clip-path="url(#_clipPath_uLOV0L5JKwnyZYdvJ1kkFpnrToJAlxwm)"><mask id="_mask_xEYQVtR9knHGSkDFd72xdI6lg13BBwXw"><rect width="83.333" height="83.333" x="329.927" y="83.375" fill="#fff" stroke="none"/></mask><rect width="83.333" height="83.333" x="329.927" y="83.375" fill="#000" transform="matrix(1,0,0,1,0,0)"/><rect width="83.333" height="83.333" x="329.927" y="83.375" fill="#000" stroke="#000" stroke-linecap="square" stroke-linejoin="miter" stroke-miterlimit="2" stroke-opacity="100" stroke-width="2" mask="url(#_mask_xEYQVtR9knHGSkDFd72xdI6lg13BBwXw)" transform="matrix(1,0,0,1,0,0)" vector-effect="non-scaling-stroke"/></g><rect width="83.333" height="83.333" x="495.552" y="84.625" fill="#000" transform="matrix(1,0,0,1,0,0)"/><clipPath id="_clipPath_pe21bFhdEH6qK6DtE3MYE9vpuQqa599u"><rect width="83.333" height="83.333" x="495.552" y="84.625" fill="#FFF" transform="matrix(1,0,0,1,0,0)"/></clipPath><g clip-path="url(#_clipPath_pe21bFhdEH6qK6DtE3MYE9vpuQqa599u)"><mask id="_mask_KCew5FGTC42wKW8UnmfFPUvG7O5ay9b0"><rect width="83.333" height="83.333" x="495.552" y="84.625" fill="#fff" stroke="none"/></mask><rect width="83.333" height="83.333" x="495.552" y="84.625" fill="#000" transform="matrix(1,0,0,1,0,0)"/><rect width="83.333" height="83.333" x="495.552" y="84.625" fill="#000" stroke="#000" stroke-linecap="square" stroke-linejoin="miter" stroke-miterlimit="2" stroke-opacity="100" stroke-width="2" mask="url(#_mask_KCew5FGTC42wKW8UnmfFPUvG7O5ay9b0)" transform="matrix(1,0,0,1,0,0)" vector-effect="non-scaling-stroke"/></g><rect width="83.333" height="83.333" x="412.457" y="84.626" fill="#FFF" transform="matrix(1,0,0,1,0,0)"/><clipPath id="_clipPath_J6Z1BsLrnNhd5a3DSYBrbRuSBdHTpE9i"><rect width="83.333" height="83.333" x="412.457" y="84.626" fill="#FFF" transform="matrix(1,0,0,1,0,0)"/></clipPath><g clip-path="url(#_clipPath_J6Z1BsLrnNhd5a3DSYBrbRuSBdHTpE9i)"><mask id="_mask_4wNXJsdVtd5FEp5hR6N03ByeWlaspkz8"><rect width="83.333" height="83.333" x="412.457" y="84.626" fill="#fff" stroke="none"/></mask><rect width="83.333" height="83.333" x="412.457" y="84.626" fill="#FFF" transform="matrix(1,0,0,1,0,0)"/><rect width="83.333" height="83.333" x="412.457" y="84.626" fill="#FFF" stroke="#000" stroke-linecap="square" stroke-linejoin="miter" stroke-miterlimit="2" stroke-opacity="100" stroke-width="2" mask="url(#_mask_4wNXJsdVtd5FEp5hR6N03ByeWlaspkz8)" transform="matrix(1,0,0,1,0,0)" vector-effect="non-scaling-stroke"/></g><rect width="83.333" height="83.333" x="247.303" y="167" fill="#000" transform="matrix(1,0,0,1,0,0)"/><clipPath id="_clipPath_mW6i1TyIApKFmLSNa1XxbDpmZLX9YVaH"><rect width="83.333" height="83.333" x="247.303" y="167" fill="#FFF" transform="matrix(1,0,0,1,0,0)"/></clipPath><g clip-path="url(#_clipPath_mW6i1TyIApKFmLSNa1XxbDpmZLX9YVaH)"><mask id="_mask_5r882mzH1KWgjRDI77zRjFmScOJPONQh"><rect width="83.333" height="83.333" x="247.303" y="167" fill="#fff" stroke="none"/></mask><rect width="83.333" height="83.333" x="247.303" y="167" fill="#000" transform="matrix(1,0,0,1,0,0)"/><rect width="83.333" height="83.333" x="247.303" y="167" fill="#000" stroke="#000" stroke-linecap="square" stroke-linejoin="miter" stroke-miterlimit="2" stroke-opacity="100" stroke-width="2" mask="url(#_mask_5r882mzH1KWgjRDI77zRjFmScOJPONQh)" transform="matrix(1,0,0,1,0,0)" vector-effect="non-scaling-stroke"/></g><rect width="83.333" height="83.333" x="247.333" y="250.25" fill="#FFF" transform="matrix(1,0,0,1,0,0)"/><clipPath id="_clipPath_2dkzJDm3wEIixDYpm0nRyufU3TBiK4Tp"><rect width="83.333" height="83.333" x="247.333" y="250.25" fill="#FFF" transform="matrix(1,0,0,1,0,0)"/></clipPath><g clip-path="url(#_clipPath_2dkzJDm3wEIixDYpm0nRyufU3TBiK4Tp)"><mask id="_mask_8y6QhrR9RnyESG1o7d0mZnza2QV1LVPZ"><rect width="83.333" height="83.333" x="247.333" y="250.25" fill="#fff" stroke="none"/></mask><rect width="83.333" height="83.333" x="247.333" y="250.25" fill="#FFF" transform="matrix(1,0,0,1,0,0)"/><rect width="83.333" height="83.333" x="247.333" y="250.25" fill="#FFF" stroke="#000" stroke-linecap="square" stroke-linejoin="miter" stroke-miterlimit="2" stroke-opacity="100" stroke-width="2" mask="url(#_mask_8y6QhrR9RnyESG1o7d0mZnza2QV1LVPZ)" transform="matrix(1,0,0,1,0,0)" vector-effect="non-scaling-stroke"/></g><rect width="83.333" height="83.333" x="329.719" y="250.125" fill="#000" transform="matrix(-1,0,0,-1,742.771,583.583)"/><clipPath id="_clipPath_rchwdAgRF1WkOZuQcoe65GJ4FQIueECg"><rect width="83.333" height="83.333" x="329.719" y="250.124" fill="#FFF" transform="matrix(1,0,0,1,0,0)"/></clipPath><g clip-path="url(#_clipPath_rchwdAgRF1WkOZuQcoe65GJ4FQIueECg)"><mask id="_mask_ILkErkqYVzWYmF0iooNEt4Cg98H5pwf6"><rect width="83.333" height="83.333" x="329.719" y="250.125" fill="#fff" stroke="none"/></mask><rect width="83.333" height="83.333" x="329.719" y="250.125" fill="#000" transform="matrix(-1,0,0,-1,742.771,583.583)"/><rect width="83.333" height="83.333" x="329.719" y="250.125" fill="#000" stroke="#000" stroke-linecap="square" stroke-linejoin="miter" stroke-miterlimit="2" stroke-opacity="100" stroke-width="2" mask="url(#_mask_ILkErkqYVzWYmF0iooNEt4Cg98H5pwf6)" transform="matrix(-1,0,0,-1,742.771,583.583)" vector-effect="non-scaling-stroke"/></g><rect width="83.333" height="83.333" x="329.749" y="166.875" fill="#FFF" transform="matrix(-1,0,0,-1,742.831,417.083)"/><clipPath id="_clipPath_TwTeapEzdIJyu7Vkp7aPE746EbqFhZbt"><rect width="83.333" height="83.333" x="329.749" y="166.874" fill="#FFF" transform="matrix(1,0,0,1,0,0)"/></clipPath><g clip-path="url(#_clipPath_TwTeapEzdIJyu7Vkp7aPE746EbqFhZbt)"><mask id="_mask_kkW46jeFKMQ5xrIXKTIqtt7S1vYvoDls"><rect width="83.333" height="83.333" x="329.749" y="166.875" fill="#fff" stroke="none"/></mask><rect width="83.333" height="83.333" x="329.749" y="166.875" fill="#FFF" transform="matrix(-1,0,0,-1,742.831,417.083)"/><rect width="83.333" height="83.333" x="329.749" y="166.875" fill="#FFF" stroke="#000" stroke-linecap="square" stroke-linejoin="miter" stroke-miterlimit="2" stroke-opacity="100" stroke-width="2" mask="url(#_mask_kkW46jeFKMQ5xrIXKTIqtt7S1vYvoDls)" transform="matrix(-1,0,0,-1,742.831,417.083)" vector-effect="non-scaling-stroke"/></g><rect width="83.333" height="83.333" x="413.083" y="248.875" fill="#FFF" transform="matrix(-1,0,0,-1,909.499,581.083)"/><clipPath id="_clipPath_KJ39qJzglkF12lyRCBTWOODkLh6H6Sun"><rect width="83.333" height="83.333" x="413.082" y="248.874" fill="#FFF" transform="matrix(1,0,0,1,0,0)"/></clipPath><g clip-path="url(#_clipPath_KJ39qJzglkF12lyRCBTWOODkLh6H6Sun)"><mask id="_mask_rdJj6pFcbPC8aCjBhelNqMiq9g7Ux5b1"><rect width="83.333" height="83.333" x="413.083" y="248.875" fill="#fff" stroke="none"/></mask><rect width="83.333" height="83.333" x="413.083" y="248.875" fill="#FFF" transform="matrix(-1,0,0,-1,909.499,581.083)"/><rect width="83.333" height="83.333" x="413.083" y="248.875" fill="#FFF" stroke="#000" stroke-linecap="square" stroke-linejoin="miter" stroke-miterlimit="2" stroke-opacity="100" stroke-width="2" mask="url(#_mask_rdJj6pFcbPC8aCjBhelNqMiq9g7Ux5b1)" transform="matrix(-1,0,0,-1,909.499,581.083)" vector-effect="non-scaling-stroke"/></g><rect width="83.333" height="83.333" x="413.052" y="166.125" fill="#000" transform="matrix(-1,0,0,-1,909.437,415.583)"/><clipPath id="_clipPath_kNpnp9hN9qbKQ0OFY4CL90tQ2ukfCKl2"><rect width="83.333" height="83.333" x="413.052" y="166.124" fill="#FFF" transform="matrix(1,0,0,1,0,0)"/></clipPath><g clip-path="url(#_clipPath_kNpnp9hN9qbKQ0OFY4CL90tQ2ukfCKl2)"><mask id="_mask_eyhysPhGJgJL6y9xwz03MpDH4iQTzO1A"><rect width="83.333" height="83.333" x="413.052" y="166.125" fill="#fff" stroke="none"/></mask><rect width="83.333" height="83.333" x="413.052" y="166.125" fill="#000" transform="matrix(-1,0,0,-1,909.437,415.583)"/><rect width="83.333" height="83.333" x="413.052" y="166.125" fill="#000" stroke="#000" stroke-linecap="square" stroke-linejoin="miter" stroke-miterlimit="2" stroke-opacity="100" stroke-width="2" mask="url(#_mask_eyhysPhGJgJL6y9xwz03MpDH4iQTzO1A)" transform="matrix(-1,0,0,-1,909.437,415.583)" vector-effect="non-scaling-stroke"/></g><rect width="83.333" height="83.333" x="577.957" y="84.626" fill="#FFF" transform="matrix(1,0,0,1,0,0)"/><clipPath id="_clipPath_5jiVfI5LvHNjPW4ZJLJJHP9xmPlfQMQi"><rect width="83.333" height="83.333" x="577.957" y="84.626" fill="#FFF" transform="matrix(1,0,0,1,0,0)"/></clipPath><g clip-path="url(#_clipPath_5jiVfI5LvHNjPW4ZJLJJHP9xmPlfQMQi)"><mask id="_mask_cqXbdYffa2MQMluVqN8nHApPxpQRrWSA"><rect width="83.333" height="83.333" x="577.957" y="84.626" fill="#fff" stroke="none"/></mask><rect width="83.333" height="83.333" x="577.957" y="84.626" fill="#FFF" transform="matrix(1,0,0,1,0,0)"/><rect width="83.333" height="83.333" x="577.957" y="84.626" fill="#FFF" stroke="#000" stroke-linecap="square" stroke-linejoin="miter" stroke-miterlimit="2" stroke-opacity="100" stroke-width="2" mask="url(#_mask_cqXbdYffa2MQMluVqN8nHApPxpQRrWSA)" transform="matrix(1,0,0,1,0,0)" vector-effect="non-scaling-stroke"/></g><rect width="83.333" height="83.333" x="578.582" y="248.875" fill="#FFF" transform="matrix(-1,0,0,-1,1240.497,581.083)"/><clipPath id="_clipPath_K1PTgM8V74yczHMGL7xUwsRqzWIW1Df6"><rect width="83.333" height="83.333" x="578.582" y="248.874" fill="#FFF" transform="matrix(1,0,0,1,0,0)"/></clipPath><g clip-path="url(#_clipPath_K1PTgM8V74yczHMGL7xUwsRqzWIW1Df6)"><mask id="_mask_IBlC74zMBgcj5zsmSntePthxD5eYD8aE"><rect width="83.333" height="83.333" x="578.582" y="248.875" fill="#fff" stroke="none"/></mask><rect width="83.333" height="83.333" x="578.582" y="248.875" fill="#FFF" transform="matrix(-1,0,0,-1,1240.497,581.083)"/><rect width="83.333" height="83.333" x="578.582" y="248.875" fill="#FFF" stroke="#000" stroke-linecap="square" stroke-linejoin="miter" stroke-miterlimit="2" stroke-opacity="100" stroke-width="2" mask="url(#_mask_IBlC74zMBgcj5zsmSntePthxD5eYD8aE)" transform="matrix(-1,0,0,-1,1240.497,581.083)" vector-effect="non-scaling-stroke"/></g><rect width="83.333" height="83.333" x="578.552" y="166.125" fill="#000" transform="matrix(-1,0,0,-1,1240.437,415.583)"/><clipPath id="_clipPath_YbIwnkYKlLpcU5Df1bXSRIRsBVNtmjb5"><rect width="83.333" height="83.333" x="578.551" y="166.124" fill="#FFF" transform="matrix(1,0,0,1,0,0)"/></clipPath><g clip-path="url(#_clipPath_YbIwnkYKlLpcU5Df1bXSRIRsBVNtmjb5)"><mask id="_mask_GeCcPmDtNZQ1l3YQBIDlvaJNSKr85FnO"><rect width="83.333" height="83.333" x="578.552" y="166.125" fill="#fff" stroke="none"/></mask><rect width="83.333" height="83.333" x="578.552" y="166.125" fill="#000" transform="matrix(-1,0,0,-1,1240.437,415.583)"/><rect width="83.333" height="83.333" x="578.552" y="166.125" fill="#000" stroke="#000" stroke-linecap="square" stroke-linejoin="miter" stroke-miterlimit="2" stroke-opacity="100" stroke-width="2" mask="url(#_mask_GeCcPmDtNZQ1l3YQBIDlvaJNSKr85FnO)" transform="matrix(-1,0,0,-1,1240.437,415.583)" vector-effect="non-scaling-stroke"/></g><rect width="83.333" height="83.333" x="579.302" y="331.125" fill="#000" transform="matrix(-1,0,0,-1,1241.937,745.583)"/><clipPath id="_clipPath_aLsm6QQVJHQTgN7C3JM5AvJfhuY2vj3e"><rect width="83.333" height="83.333" x="579.301" y="331.124" fill="#FFF" transform="matrix(1,0,0,1,0,0)"/></clipPath><g clip-path="url(#_clipPath_aLsm6QQVJHQTgN7C3JM5AvJfhuY2vj3e)"><mask id="_mask_GtZSmPNmSqC65UtM6HgqeYgstNPg4NLs"><rect width="83.333" height="83.333" x="579.302" y="331.125" fill="#fff" stroke="none"/></mask><rect width="83.333" height="83.333" x="579.302" y="331.125" fill="#000" transform="matrix(-1,0,0,-1,1241.937,745.583)"/><rect width="83.333" height="83.333" x="579.302" y="331.125" fill="#000" stroke="#000" stroke-linecap="square" stroke-linejoin="miter" stroke-miterlimit="2" stroke-opacity="100" stroke-width="2" mask="url(#_mask_GtZSmPNmSqC65UtM6HgqeYgstNPg4NLs)" transform="matrix(-1,0,0,-1,1241.937,745.583)" vector-effect="non-scaling-stroke"/></g><rect width="83.333" height="83.333" x="496.052" y="248.125" fill="#000" transform="matrix(-1,0,0,-1,1075.437,579.583)"/><clipPath id="_clipPath_HFCjnm5dnrStuAYPP4Gug8HtEglhOUGp"><rect width="83.333" height="83.333" x="496.052" y="248.124" fill="#FFF" transform="matrix(1,0,0,1,0,0)"/></clipPath><g clip-path="url(#_clipPath_HFCjnm5dnrStuAYPP4Gug8HtEglhOUGp)"><mask id="_mask_CjW610UHwI7HUZNhqPXUhACJZA6XsEG9"><rect width="83.333" height="83.333" x="496.052" y="248.125" fill="#fff" stroke="none"/></mask><rect width="83.333" height="83.333" x="496.052" y="248.125" fill="#000" transform="matrix(-1,0,0,-1,1075.437,579.583)"/><rect width="83.333" height="83.333" x="496.052" y="248.125" fill="#000" stroke="#000" stroke-linecap="square" stroke-linejoin="miter" stroke-miterlimit="2" stroke-opacity="100" stroke-width="2" mask="url(#_mask_CjW610UHwI7HUZNhqPXUhACJZA6XsEG9)" transform="matrix(-1,0,0,-1,1075.437,579.583)" vector-effect="non-scaling-stroke"/></g><rect width="83.333" height="83.333" x="0" y="330.25" fill="#FFF" transform="matrix(1,0,0,1,0,0)"/><clipPath id="_clipPath_lUi0Q3U2KIWOEUTjY5kzChN8EWLMLqkZ"><rect width="83.333" height="83.333" x="0" y="330.25" fill="#FFF" transform="matrix(1,0,0,1,0,0)"/></clipPath><g clip-path="url(#_clipPath_lUi0Q3U2KIWOEUTjY5kzChN8EWLMLqkZ)"><mask id="_mask_Qx4PZg11Bcc9wAuJOR1ddHsRK3DTCeMs"><rect width="83.333" height="83.333" x="0" y="330.25" fill="#fff" stroke="none"/></mask><rect width="83.333" height="83.333" x="0" y="330.25" fill="#FFF" transform="matrix(1,0,0,1,0,0)"/><rect width="83.333" height="83.333" x="0" y="330.25" fill="#FFF" stroke="#000" stroke-linecap="square" stroke-linejoin="miter" stroke-miterlimit="2" stroke-opacity="100" stroke-width="2" mask="url(#_mask_Qx4PZg11Bcc9wAuJOR1ddHsRK3DTCeMs)" transform="matrix(1,0,0,1,0,0)" vector-effect="non-scaling-stroke"/></g><rect width="83.333" height="83.333" x="83.303" y="331" fill="#000" transform="matrix(1,0,0,1,0,0)"/><clipPath id="_clipPath_rv1v4rWpXk9ZJRRrmRa6nTZfYuTFg3on"><rect width="83.333" height="83.333" x="83.303" y="331" fill="#FFF" transform="matrix(1,0,0,1,0,0)"/></clipPath><g clip-path="url(#_clipPath_rv1v4rWpXk9ZJRRrmRa6nTZfYuTFg3on)"><mask id="_mask_dtHIz5NoSzYFGLiMWTOPf7KPuiAmFMtF"><rect width="83.333" height="83.333" x="83.303" y="331" fill="#fff" stroke="none"/></mask><rect width="83.333" height="83.333" x="83.303" y="331" fill="#000" transform="matrix(1,0,0,1,0,0)"/><rect width="83.333" height="83.333" x="83.303" y="331" fill="#000" stroke="#000" stroke-linecap="square" stroke-linejoin="miter" stroke-miterlimit="2" stroke-opacity="100" stroke-width="2" mask="url(#_mask_dtHIz5NoSzYFGLiMWTOPf7KPuiAmFMtF)" transform="matrix(1,0,0,1,0,0)" vector-effect="non-scaling-stroke"/></g><rect width="83.333" height="83.333" x=".303" y="248.75" fill="#000" transform="matrix(1,0,0,1,0,0)"/><clipPath id="_clipPath_34QFNXdpQWxY2dxvoIDucvHVS9m70pr2"><rect width="83.333" height="83.333" x=".303" y="248.75" fill="#FFF" transform="matrix(1,0,0,1,0,0)"/></clipPath><g clip-path="url(#_clipPath_34QFNXdpQWxY2dxvoIDucvHVS9m70pr2)"><mask id="_mask_uAYT3vbfBB5Tm4cwBVPGxBSFmWGOrvCi"><rect width="83.333" height="83.333" x=".303" y="248.75" fill="#fff" stroke="none"/></mask><rect width="83.333" height="83.333" x=".303" y="248.75" fill="#000" transform="matrix(1,0,0,1,0,0)"/><rect width="83.333" height="83.333" x=".303" y="248.75" fill="#000" stroke="#000" stroke-linecap="square" stroke-linejoin="miter" stroke-miterlimit="2" stroke-opacity="100" stroke-width="2" mask="url(#_mask_uAYT3vbfBB5Tm4cwBVPGxBSFmWGOrvCi)" transform="matrix(1,0,0,1,0,0)" vector-effect="non-scaling-stroke"/></g><rect width="83.333" height="83.333" x="166.333" y="332.25" fill="#FFF" transform="matrix(1,0,0,1,0,0)"/><clipPath id="_clipPath_U5sWmABaAFyYCwYfrHi2zZ9bHMPPiBfj"><rect width="83.333" height="83.333" x="166.333" y="332.25" fill="#FFF" transform="matrix(1,0,0,1,0,0)"/></clipPath><g clip-path="url(#_clipPath_U5sWmABaAFyYCwYfrHi2zZ9bHMPPiBfj)"><mask id="_mask_cuyV1y8kfnZs4xckO8l4lHJfHFs1H8Ra"><rect width="83.333" height="83.333" x="166.333" y="332.25" fill="#fff" stroke="none"/></mask><rect width="83.333" height="83.333" x="166.333" y="332.25" fill="#FFF" transform="matrix(1,0,0,1,0,0)"/><rect width="83.333" height="83.333" x="166.333" y="332.25" fill="#FFF" stroke="#000" stroke-linecap="square" stroke-linejoin="miter" stroke-miterlimit="2" stroke-opacity="100" stroke-width="2" mask="url(#_mask_cuyV1y8kfnZs4xckO8l4lHJfHFs1H8Ra)" transform="matrix(1,0,0,1,0,0)" vector-effect="non-scaling-stroke"/></g><rect width="83.333" height="83.333" x="248.719" y="332.125" fill="#000" transform="matrix(-1,0,0,-1,580.771,747.583)"/><clipPath id="_clipPath_U8uTMW0ZXfqBX1JVxpRZNsNWPinztHGU"><rect width="83.333" height="83.333" x="248.719" y="332.124" fill="#FFF" transform="matrix(1,0,0,1,0,0)"/></clipPath><g clip-path="url(#_clipPath_U8uTMW0ZXfqBX1JVxpRZNsNWPinztHGU)"><mask id="_mask_bHiZp5tdAaCwF00Dgbh3fcB5H2ehfQNJ"><rect width="83.333" height="83.333" x="248.719" y="332.125" fill="#fff" stroke="none"/></mask><rect width="83.333" height="83.333" x="248.719" y="332.125" fill="#000" transform="matrix(-1,0,0,-1,580.771,747.583)"/><rect width="83.333" height="83.333" x="248.719" y="332.125" fill="#000" stroke="#000" stroke-linecap="square" stroke-linejoin="miter" stroke-miterlimit="2" stroke-opacity="100" stroke-width="2" mask="url(#_mask_bHiZp5tdAaCwF00Dgbh3fcB5H2ehfQNJ)" transform="matrix(-1,0,0,-1,580.771,747.583)" vector-effect="non-scaling-stroke"/></g><rect width="83.333" height="83.333" x="332.083" y="330.875" fill="#FFF" transform="matrix(-1,0,0,-1,747.499,745.083)"/><clipPath id="_clipPath_decrGwty9HW9bAALfaf6hzjLwRApSAf5"><rect width="83.333" height="83.333" x="332.082" y="330.874" fill="#FFF" transform="matrix(1,0,0,1,0,0)"/></clipPath><g clip-path="url(#_clipPath_decrGwty9HW9bAALfaf6hzjLwRApSAf5)"><mask id="_mask_kvxb6Ax7HC3GJaQtqy8GvwmVlDfonS2z"><rect width="83.333" height="83.333" x="332.083" y="330.875" fill="#fff" stroke="none"/></mask><rect width="83.333" height="83.333" x="332.083" y="330.875" fill="#FFF" transform="matrix(-1,0,0,-1,747.499,745.083)"/><rect width="83.333" height="83.333" x="332.083" y="330.875" fill="#FFF" stroke="#000" stroke-linecap="square" stroke-linejoin="miter" stroke-miterlimit="2" stroke-opacity="100" stroke-width="2" mask="url(#_mask_kvxb6Ax7HC3GJaQtqy8GvwmVlDfonS2z)" transform="matrix(-1,0,0,-1,747.499,745.083)" vector-effect="non-scaling-stroke"/></g><rect width="83.333" height="83.333" x="497.582" y="330.875" fill="#FFF" transform="matrix(-1,0,0,-1,1078.497,745.083)"/><clipPath id="_clipPath_gGHAsVviU8fz46TrRC5KZFNfzYIMIbAg"><rect width="83.333" height="83.333" x="497.582" y="330.874" fill="#FFF" transform="matrix(1,0,0,1,0,0)"/></clipPath><g clip-path="url(#_clipPath_gGHAsVviU8fz46TrRC5KZFNfzYIMIbAg)"><mask id="_mask_rJxSqi9zmEmEFvALQNoGZ72FNFEEZ62k"><rect width="83.333" height="83.333" x="497.582" y="330.875" fill="#fff" stroke="none"/></mask><rect width="83.333" height="83.333" x="497.582" y="330.875" fill="#FFF" transform="matrix(-1,0,0,-1,1078.497,745.083)"/><rect width="83.333" height="83.333" x="497.582" y="330.875" fill="#FFF" stroke="#000" stroke-linecap="square" stroke-linejoin="miter" stroke-miterlimit="2" stroke-opacity="100" stroke-width="2" mask="url(#_mask_rJxSqi9zmEmEFvALQNoGZ72FNFEEZ62k)" transform="matrix(-1,0,0,-1,1078.497,745.083)" vector-effect="non-scaling-stroke"/></g><rect width="83.333" height="83.333" x="415.052" y="330.125" fill="#000" transform="matrix(-1,0,0,-1,913.437,743.583)"/><clipPath id="_clipPath_U7pcgVFZli46qSM8ZSPKKJylnAFVJMfF"><rect width="83.333" height="83.333" x="415.052" y="330.124" fill="#FFF" transform="matrix(1,0,0,1,0,0)"/></clipPath><g clip-path="url(#_clipPath_U7pcgVFZli46qSM8ZSPKKJylnAFVJMfF)"><mask id="_mask_ZfuSoL8ywkTdw4VhHaiUKA3qqReOWDmP"><rect width="83.333" height="83.333" x="415.052" y="330.125" fill="#fff" stroke="none"/></mask><rect width="83.333" height="83.333" x="415.052" y="330.125" fill="#000" transform="matrix(-1,0,0,-1,913.437,743.583)"/><rect width="83.333" height="83.333" x="415.052" y="330.125" fill="#000" stroke="#000" stroke-linecap="square" stroke-linejoin="miter" stroke-miterlimit="2" stroke-opacity="100" stroke-width="2" mask="url(#_mask_ZfuSoL8ywkTdw4VhHaiUKA3qqReOWDmP)" transform="matrix(-1,0,0,-1,913.437,743.583)" vector-effect="non-scaling-stroke"/></g><rect width="83.333" height="83.333" x="496.083" y="164.875" fill="#FFF" transform="matrix(-1,0,0,-1,1075.499,413.083)"/><clipPath id="_clipPath_L9OLUrWCvBr9hLa4gZ2O7dclAroaxAh6"><rect width="83.333" height="83.333" x="496.082" y="164.874" fill="#FFF" transform="matrix(1,0,0,1,0,0)"/></clipPath><g clip-path="url(#_clipPath_L9OLUrWCvBr9hLa4gZ2O7dclAroaxAh6)"><mask id="_mask_oRw4n67KJNSQd7AG9NdA37oLODIsQrRo"><rect width="83.333" height="83.333" x="496.083" y="164.875" fill="#fff" stroke="none"/></mask><rect width="83.333" height="83.333" x="496.083" y="164.875" fill="#FFF" transform="matrix(-1,0,0,-1,1075.499,413.083)"/><rect width="83.333" height="83.333" x="496.083" y="164.875" fill="#FFF" stroke="#000" stroke-linecap="square" stroke-linejoin="miter" stroke-miterlimit="2" stroke-opacity="100" stroke-width="2" mask="url(#_mask_oRw4n67KJNSQd7AG9NdA37oLODIsQrRo)" transform="matrix(-1,0,0,-1,1075.499,413.083)" vector-effect="non-scaling-stroke"/></g><rect width="83.333" height="83.333" x="165" y="0" fill="#FFF" transform="matrix(1,0,0,1,0,0)"/><clipPath id="_clipPath_fq1WLgiWllzqwOiDQaJkufl5t1NHEQiJ"><rect width="83.333" height="83.333" x="165" y="0" fill="#FFF" transform="matrix(1,0,0,1,0,0)"/></clipPath><g clip-path="url(#_clipPath_fq1WLgiWllzqwOiDQaJkufl5t1NHEQiJ)"><mask id="_mask_PDcPD0H1qYO7TCWIHAusXh7bOWvgOIQI"><rect width="83.333" height="83.333" x="165" y="0" fill="#fff" stroke="none"/></mask><rect width="83.333" height="83.333" x="165" y="0" fill="#FFF" transform="matrix(1,0,0,1,0,0)"/><rect width="83.333" height="83.333" x="165" y="0" fill="#FFF" stroke="#000" stroke-linecap="square" stroke-linejoin="miter" stroke-miterlimit="2" stroke-opacity="100" stroke-width="2" mask="url(#_mask_PDcPD0H1qYO7TCWIHAusXh7bOWvgOIQI)" transform="matrix(1,0,0,1,0,0)" vector-effect="non-scaling-stroke"/></g><rect width="83.333" height="83.333" x="2.75" y="1.25" fill="#FFF" transform="matrix(1,0,0,1,0,0)"/><clipPath id="_clipPath_HnyNHagCtHcDNL8FwuRYVWNVyFMJfGwc"><rect width="83.333" height="83.333" x="2.75" y="1.25" fill="#FFF" transform="matrix(1,0,0,1,0,0)"/></clipPath><g clip-path="url(#_clipPath_HnyNHagCtHcDNL8FwuRYVWNVyFMJfGwc)"><mask id="_mask_7bYWM0qYx0azo5yb3SWf1H2ogJfUrxXi"><rect width="83.333" height="83.333" x="2.75" y="1.25" fill="#fff" stroke="none"/></mask><rect width="83.333" height="83.333" x="2.75" y="1.25" fill="#FFF" transform="matrix(1,0,0,1,0,0)"/><rect width="83.333" height="83.333" x="2.75" y="1.25" fill="#FFF" stroke="#000" stroke-linecap="square" stroke-linejoin="miter" stroke-miterlimit="2" stroke-opacity="100" stroke-width="2" mask="url(#_mask_7bYWM0qYx0azo5yb3SWf1H2ogJfUrxXi)" transform="matrix(1,0,0,1,0,0)" vector-effect="non-scaling-stroke"/></g><rect width="83.333" height="83.333" x="248.303" y=".75" fill="#000" transform="matrix(1,0,0,1,0,0)"/><clipPath id="_clipPath_NK0omjQOKUQgLcFgGPIHwbBJuxC73gHP"><rect width="83.333" height="83.333" x="248.303" y=".75" fill="#FFF" transform="matrix(1,0,0,1,0,0)"/></clipPath><g clip-path="url(#_clipPath_NK0omjQOKUQgLcFgGPIHwbBJuxC73gHP)"><mask id="_mask_PGBg680IxY2wTjK7qZoH30ALimtWmMzh"><rect width="83.333" height="83.333" x="248.303" y=".75" fill="#fff" stroke="none"/></mask><rect width="83.333" height="83.333" x="248.303" y=".75" fill="#000" transform="matrix(1,0,0,1,0,0)"/><rect width="83.333" height="83.333" x="248.303" y=".75" fill="#000" stroke="#000" stroke-linecap="square" stroke-linejoin="miter" stroke-miterlimit="2" stroke-opacity="100" stroke-width="2" mask="url(#_mask_PGBg680IxY2wTjK7qZoH30ALimtWmMzh)" transform="matrix(1,0,0,1,0,0)" vector-effect="non-scaling-stroke"/></g><rect width="83.333" height="83.333" x="1.553" y="84" fill="#000" transform="matrix(1,0,0,1,0,0)"/><clipPath id="_clipPath_5XL27bjBQEUJA6Ew6ppblZR3e0N8zun2"><rect width="83.333" height="83.333" x="1.553" y="84" fill="#FFF" transform="matrix(1,0,0,1,0,0)"/></clipPath><g clip-path="url(#_clipPath_5XL27bjBQEUJA6Ew6ppblZR3e0N8zun2)"><mask id="_mask_uOXprz73mYFLoFCTsQI1Q3udmm3buXDb"><rect width="83.333" height="83.333" x="1.553" y="84" fill="#fff" stroke="none"/></mask><rect width="83.333" height="83.333" x="1.553" y="84" fill="#000" transform="matrix(1,0,0,1,0,0)"/><rect width="83.333" height="83.333" x="1.553" y="84" fill="#000" stroke="#000" stroke-linecap="square" stroke-linejoin="miter" stroke-miterlimit="2" stroke-opacity="100" stroke-width="2" mask="url(#_mask_uOXprz73mYFLoFCTsQI1Q3udmm3buXDb)" transform="matrix(1,0,0,1,0,0)" vector-effect="non-scaling-stroke"/></g><rect width="83.333" height="83.333" x="331.333" y="2" fill="#FFF" transform="matrix(1,0,0,1,0,0)"/><clipPath id="_clipPath_ZgOS8k8pYELyPQJDTvYNOEOEmSBOYOtT"><rect width="83.333" height="83.333" x="331.333" y="2" fill="#FFF" transform="matrix(1,0,0,1,0,0)"/></clipPath><g clip-path="url(#_clipPath_ZgOS8k8pYELyPQJDTvYNOEOEmSBOYOtT)"><mask id="_mask_86do67T2lorV5X4T6q9DSVGnoGplFCp1"><rect width="83.333" height="83.333" x="331.333" y="2" fill="#fff" stroke="none"/></mask><rect width="83.333" height="83.333" x="331.333" y="2" fill="#FFF" transform="matrix(1,0,0,1,0,0)"/><rect width="83.333" height="83.333" x="331.333" y="2" fill="#FFF" stroke="#000" stroke-linecap="square" stroke-linejoin="miter" stroke-miterlimit="2" stroke-opacity="100" stroke-width="2" mask="url(#_mask_86do67T2lorV5X4T6q9DSVGnoGplFCp1)" transform="matrix(1,0,0,1,0,0)" vector-effect="non-scaling-stroke"/></g><rect width="83.333" height="83.333" x="413.719" y="1.875" fill="#000" transform="matrix(-1,0,0,-1,910.771,87.083)"/><clipPath id="_clipPath_jvu3BsefaiPQ3jN84WfSukZimk4qZ3ER"><rect width="83.333" height="83.333" x="413.719" y="1.874" fill="#FFF" transform="matrix(1,0,0,1,0,0)"/></clipPath><g clip-path="url(#_clipPath_jvu3BsefaiPQ3jN84WfSukZimk4qZ3ER)"><mask id="_mask_XsgdD3LffZxL8XzAl1jiDEKgY0nvBu1i"><rect width="83.333" height="83.333" x="413.719" y="1.875" fill="#fff" stroke="none"/></mask><rect width="83.333" height="83.333" x="413.719" y="1.875" fill="#000" transform="matrix(-1,0,0,-1,910.771,87.083)"/><rect width="83.333" height="83.333" x="413.719" y="1.875" fill="#000" stroke="#000" stroke-linecap="square" stroke-linejoin="miter" stroke-miterlimit="2" stroke-opacity="100" stroke-width="2" mask="url(#_mask_XsgdD3LffZxL8XzAl1jiDEKgY0nvBu1i)" transform="matrix(-1,0,0,-1,910.771,87.083)" vector-effect="non-scaling-stroke"/></g><rect width="83.333" height="83.333" x="659.457" y="167.126" fill="#FFF" transform="matrix(1,0,0,1,0,0)"/><clipPath id="_clipPath_XVyhygbLsiOluYSeIpTbFoymjpNX0IpA"><rect width="83.333" height="83.333" x="659.457" y="167.126" fill="#FFF" transform="matrix(1,0,0,1,0,0)"/></clipPath><g clip-path="url(#_clipPath_XVyhygbLsiOluYSeIpTbFoymjpNX0IpA)"><mask id="_mask_J4FWWmBDoeQFAOLLFbLjamq3XqqXrnoa"><rect width="83.333" height="83.333" x="659.457" y="167.126" fill="#fff" stroke="none"/></mask><rect width="83.333" height="83.333" x="659.457" y="167.126" fill="#FFF" transform="matrix(1,0,0,1,0,0)"/><rect width="83.333" height="83.333" x="659.457" y="167.126" fill="#FFF" stroke="#000" stroke-linecap="square" stroke-linejoin="miter" stroke-miterlimit="2" stroke-opacity="100" stroke-width="2" mask="url(#_mask_J4FWWmBDoeQFAOLLFbLjamq3XqqXrnoa)" transform="matrix(1,0,0,1,0,0)" vector-effect="non-scaling-stroke"/></g><rect width="83.333" height="83.333" x="660.083" y="331.375" fill="#FFF" transform="matrix(-1,0,0,-1,1403.499,746.083)"/><clipPath id="_clipPath_nqTVjXBLYOb8RaswvhNiAmOxGGdyyihu"><rect width="83.333" height="83.333" x="660.082" y="331.374" fill="#FFF" transform="matrix(1,0,0,1,0,0)"/></clipPath><g clip-path="url(#_clipPath_nqTVjXBLYOb8RaswvhNiAmOxGGdyyihu)"><mask id="_mask_HNqfHL6SMH7nvc3P0s1VCNXxzGpwuC2L"><rect width="83.333" height="83.333" x="660.083" y="331.375" fill="#fff" stroke="none"/></mask><rect width="83.333" height="83.333" x="660.083" y="331.375" fill="#FFF" transform="matrix(-1,0,0,-1,1403.499,746.083)"/><rect width="83.333" height="83.333" x="660.083" y="331.375" fill="#FFF" stroke="#000" stroke-linecap="square" stroke-linejoin="miter" stroke-miterlimit="2" stroke-opacity="100" stroke-width="2" mask="url(#_mask_HNqfHL6SMH7nvc3P0s1VCNXxzGpwuC2L)" transform="matrix(-1,0,0,-1,1403.499,746.083)" vector-effect="non-scaling-stroke"/></g><rect width="83.333" height="83.333" x="660.052" y="248.625" fill="#000" transform="matrix(-1,0,0,-1,1403.437,580.583)"/><clipPath id="_clipPath_Fn3nuZutLA9olC0Hqnfjp3Yev27wJxnt"><rect width="83.333" height="83.333" x="660.052" y="248.624" fill="#FFF" transform="matrix(1,0,0,1,0,0)"/></clipPath><g clip-path="url(#_clipPath_Fn3nuZutLA9olC0Hqnfjp3Yev27wJxnt)"><mask id="_mask_n8ZTjPB1HH4Cmth5JWZLcm6Q0jW5YjI7"><rect width="83.333" height="83.333" x="660.052" y="248.625" fill="#fff" stroke="none"/></mask><rect width="83.333" height="83.333" x="660.052" y="248.625" fill="#000" transform="matrix(-1,0,0,-1,1403.437,580.583)"/><rect width="83.333" height="83.333" x="660.052" y="248.625" fill="#000" stroke="#000" stroke-linecap="square" stroke-linejoin="miter" stroke-miterlimit="2" stroke-opacity="100" stroke-width="2" mask="url(#_mask_n8ZTjPB1HH4Cmth5JWZLcm6Q0jW5YjI7)" transform="matrix(-1,0,0,-1,1403.437,580.583)" vector-effect="non-scaling-stroke"/></g><rect width="83.333" height="83.333" x="660.719" y="84.375" fill="#000" transform="matrix(-1,0,0,-1,1404.771,252.083)"/><clipPath id="_clipPath_neNru76SIFX7LP8pN7E90kW8W5srJ3A0"><rect width="83.333" height="83.333" x="660.719" y="84.374" fill="#FFF" transform="matrix(1,0,0,1,0,0)"/></clipPath><g clip-path="url(#_clipPath_neNru76SIFX7LP8pN7E90kW8W5srJ3A0)"><mask id="_mask_jFFhDM1ws1LidIUFXBk5GyKHf2GMfTni"><rect width="83.333" height="83.333" x="660.719" y="84.375" fill="#fff" stroke="none"/></mask><rect width="83.333" height="83.333" x="660.719" y="84.375" fill="#000" transform="matrix(-1,0,0,-1,1404.771,252.083)"/><rect width="83.333" height="83.333" x="660.719" y="84.375" fill="#000" stroke="#000" stroke-linecap="square" stroke-linejoin="miter" stroke-miterlimit="2" stroke-opacity="100" stroke-width="2" mask="url(#_mask_jFFhDM1ws1LidIUFXBk5GyKHf2GMfTni)" transform="matrix(-1,0,0,-1,1404.771,252.083)" vector-effect="non-scaling-stroke"/></g><rect width="83.333" height="83.333" x="497.083" y="1.625" fill="#FFF" transform="matrix(-1,0,0,-1,1077.499,86.583)"/><clipPath id="_clipPath_xwXBoj4MLEdVThUbcScYS3azp1eOCWOh"><rect width="83.333" height="83.333" x="497.082" y="1.624" fill="#FFF" transform="matrix(1,0,0,1,0,0)"/></clipPath><g clip-path="url(#_clipPath_xwXBoj4MLEdVThUbcScYS3azp1eOCWOh)"><mask id="_mask_0TlOne5Yd53QAZ05lBtOwTLzVOjPjnz5"><rect width="83.333" height="83.333" x="497.083" y="1.625" fill="#fff" stroke="none"/></mask><rect width="83.333" height="83.333" x="497.083" y="1.625" fill="#FFF" transform="matrix(-1,0,0,-1,1077.499,86.583)"/><rect width="83.333" height="83.333" x="497.083" y="1.625" fill="#FFF" stroke="#000" stroke-linecap="square" stroke-linejoin="miter" stroke-miterlimit="2" stroke-opacity="100" stroke-width="2" mask="url(#_mask_0TlOne5Yd53QAZ05lBtOwTLzVOjPjnz5)" transform="matrix(-1,0,0,-1,1077.499,86.583)" vector-effect="non-scaling-stroke"/></g><rect width="83.333" height="83.333" x="661.582" y="1.625" fill="#FFF" transform="matrix(-1,0,0,-1,1406.497,86.583)"/><clipPath id="_clipPath_C6Bo4SQ4r8LtRY0MMcNiIzo9F9ZK4zht"><rect width="83.333" height="83.333" x="661.582" y="1.624" fill="#FFF" transform="matrix(1,0,0,1,0,0)"/></clipPath><g clip-path="url(#_clipPath_C6Bo4SQ4r8LtRY0MMcNiIzo9F9ZK4zht)"><mask id="_mask_EW8X6ZyCmczivRZFKdVAD7iTKHXQhAVg"><rect width="83.333" height="83.333" x="661.582" y="1.625" fill="#fff" stroke="none"/></mask><rect width="83.333" height="83.333" x="661.582" y="1.625" fill="#FFF" transform="matrix(-1,0,0,-1,1406.497,86.583)"/><rect width="83.333" height="83.333" x="661.582" y="1.625" fill="#FFF" stroke="#000" stroke-linecap="square" stroke-linejoin="miter" stroke-miterlimit="2" stroke-opacity="100" stroke-width="2" mask="url(#_mask_EW8X6ZyCmczivRZFKdVAD7iTKHXQhAVg)" transform="matrix(-1,0,0,-1,1406.497,86.583)" vector-effect="non-scaling-stroke"/></g><rect width="83.333" height="83.333" x="579.052" y=".875" fill="#000" transform="matrix(-1,0,0,-1,1241.437,85.083)"/><clipPath id="_clipPath_QqWgra8XQxWTM8wUSHShmbV4knqGsPiJ"><rect width="83.333" height="83.333" x="579.052" y=".874" fill="#FFF" transform="matrix(1,0,0,1,0,0)"/></clipPath><g clip-path="url(#_clipPath_QqWgra8XQxWTM8wUSHShmbV4knqGsPiJ)"><mask id="_mask_G49ZQ5vO4R70mB0MXNv8ekseMOmEAofO"><rect width="83.333" height="83.333" x="579.052" y=".875" fill="#fff" stroke="none"/></mask><rect width="83.333" height="83.333" x="579.052" y=".875" fill="#000" transform="matrix(-1,0,0,-1,1241.437,85.083)"/><rect width="83.333" height="83.333" x="579.052" y=".875" fill="#000" stroke="#000" stroke-linecap="square" stroke-linejoin="miter" stroke-miterlimit="2" stroke-opacity="100" stroke-width="2" mask="url(#_mask_G49ZQ5vO4R70mB0MXNv8ekseMOmEAofO)" transform="matrix(-1,0,0,-1,1241.437,85.083)" vector-effect="non-scaling-stroke"/></g><rect width="83.333" height="83.333" x="83.053" y="1" fill="#000" transform="matrix(1,0,0,1,0,0)"/><clipPath id="_clipPath_ZgyZ0YrP5l5FZt8Cs9XEi53DcQ80YdtY"><rect width="83.333" height="83.333" x="83.053" y="1" fill="#FFF" transform="matrix(1,0,0,1,0,0)"/></clipPath><g clip-path="url(#_clipPath_ZgyZ0YrP5l5FZt8Cs9XEi53DcQ80YdtY)"><mask id="_mask_wfoEXhcqXwPgb0Y4LCTMoDghbIjZ57Q1"><rect width="83.333" height="83.333" x="83.053" y="1" fill="#fff" stroke="none"/></mask><rect width="83.333" height="83.333" x="83.053" y="1" fill="#000" transform="matrix(1,0,0,1,0,0)"/><rect width="83.333" height="83.333" x="83.053" y="1" fill="#000" stroke="#000" stroke-linecap="square" stroke-linejoin="miter" stroke-miterlimit="2" stroke-opacity="100" stroke-width="2" mask="url(#_mask_wfoEXhcqXwPgb0Y4LCTMoDghbIjZ57Q1)" transform="matrix(1,0,0,1,0,0)" vector-effect="non-scaling-stroke"/></g></g></svg>